<svg width="74" height="76" viewBox="0 0 74 76" fill="none" xmlns="http://www.w3.org/2000/svg">
<mask id="path-1-inside-1_157_3003" fill="white">
<path d="M29 8C45.0162 8 57.9999 21.017 58 37.0742C58 49.3642 50.3937 59.8723 39.6436 64.127L30.2432 74.8232C29.4467 75.7294 28.0348 75.7294 27.2383 74.8232L17.5391 63.7881C7.22296 59.3335 0 49.0502 0 37.0742C6.58033e-05 21.017 12.9838 8 29 8Z"/>
</mask>
<path d="M29 8C45.0162 8 57.9999 21.017 58 37.0742C58 49.3642 50.3937 59.8723 39.6436 64.127L30.2432 74.8232C29.4467 75.7294 28.0348 75.7294 27.2383 74.8232L17.5391 63.7881C7.22296 59.3335 0 49.0502 0 37.0742C6.58033e-05 21.017 12.9838 8 29 8Z" fill="white"/>
<path d="M58 37.0742H61V37.0742L58 37.0742ZM39.6436 64.127L38.5395 61.3375L37.8674 61.6035L37.3901 62.1465L39.6436 64.127ZM30.2432 74.8232L32.4965 76.8038L32.4966 76.8037L30.2432 74.8232ZM27.2383 74.8232L24.985 76.8038L24.985 76.8038L27.2383 74.8232ZM17.5391 63.7881L19.7924 61.8076L19.3473 61.3012L18.7283 61.0339L17.5391 63.7881ZM0 37.0742L-3 37.0742V37.0742H0ZM29 8V11C43.3521 11 54.9999 22.6666 55 37.0742L58 37.0742L61 37.0742C60.9999 19.3673 46.6803 5 29 5V8ZM58 37.0742H55C55 48.0957 48.1808 57.5217 38.5395 61.3375L39.6436 64.127L40.7476 66.9164C52.6066 62.2229 61 50.6326 61 37.0742H58ZM39.6436 64.127L37.3901 62.1465L27.9897 72.8428L30.2432 74.8232L32.4966 76.8037L41.897 66.1074L39.6436 64.127ZM30.2432 74.8232L27.9899 72.8427C28.3881 72.3896 29.0933 72.3896 29.4916 72.8427L27.2383 74.8232L24.985 76.8038C26.9762 79.0692 30.5053 79.0692 32.4965 76.8038L30.2432 74.8232ZM27.2383 74.8232L29.4916 72.8427L19.7924 61.8076L17.5391 63.7881L15.2857 65.7686L24.985 76.8038L27.2383 74.8232ZM17.5391 63.7881L18.7283 61.0339C9.47486 57.0382 3 47.8139 3 37.0742H0H-3C-3 50.2864 4.97105 61.6289 16.3498 66.5423L17.5391 63.7881ZM0 37.0742L3 37.0742C3.00006 22.6666 14.6479 11 29 11V8V5C11.3197 5 -2.99993 19.3673 -3 37.0742L0 37.0742Z" fill="black" mask="url(#path-1-inside-1_157_3003)"/>
<path d="M7.76758 36.4907C7.76758 35.0925 8.90108 33.959 10.2993 33.959C12.0471 33.959 13.464 35.3759 13.464 37.1237V42.2164C13.464 43.9642 12.0471 45.381 10.2993 45.381C8.90108 45.381 7.76758 44.2475 7.76758 42.8493V36.4907Z" fill="#111111"/>
<path d="M44.5361 37.1237C44.5361 35.3759 45.953 33.959 47.7008 33.959C49.0991 33.959 50.2326 35.0925 50.2326 36.4907V42.8493C50.2326 44.2475 49.0991 45.381 47.7008 45.381C45.953 45.381 44.5361 43.9642 44.5361 42.2164V37.1237Z" fill="#111111"/>
<path d="M32.8486 26.1719C40.4471 26.172 46.6064 32.3322 46.6064 39.9307C46.6062 47.529 40.447 53.6884 32.8486 53.6885H25.1514C17.5529 53.6885 11.3928 47.529 11.3926 39.9307C11.3926 32.3321 17.5528 26.1719 25.1514 26.1719H32.8486ZM25.1455 28.249C18.6939 28.249 13.4639 33.4791 13.4639 39.9307C13.4639 46.3823 18.6939 51.6123 25.1455 51.6123H32.8535C39.3051 51.6123 44.5352 46.3823 44.5352 39.9307C44.5351 33.4791 39.3051 28.249 32.8535 28.249H25.1455Z" fill="#111111"/>
<ellipse cx="28.9997" cy="19.9413" rx="3.10714" ry="3.11511" fill="#111111"/>
<ellipse cx="22.2683" cy="37.5936" rx="3.10714" ry="3.11511" fill="#111111"/>
<ellipse cx="35.7321" cy="37.5936" rx="3.10714" ry="3.11511" fill="#111111"/>
<path d="M24.3389 44.3428C24.5115 45.192 25.6335 46.8905 28.7407 46.8905C31.8478 46.8905 32.9697 45.192 33.1422 44.3428" stroke="#111111" stroke-width="2" stroke-linecap="round"/>
<mask id="path-10-inside-2_157_3003" fill="white">
<path d="M66 0.176758C70.4183 0.176758 74 3.75848 74 8.17676V14.8223C73.9998 19.2404 70.4182 22.8223 66 22.8223H51.6904L43.751 28.5635L43.1602 22.8223H43C38.5818 22.8223 35.0002 19.2404 35 14.8223V8.17676C35 3.75848 38.5817 0.176758 43 0.176758H66Z"/>
</mask>
<path d="M66 0.176758C70.4183 0.176758 74 3.75848 74 8.17676V14.8223C73.9998 19.2404 70.4182 22.8223 66 22.8223H51.6904L43.751 28.5635L43.1602 22.8223H43C38.5818 22.8223 35.0002 19.2404 35 14.8223V8.17676C35 3.75848 38.5817 0.176758 43 0.176758H66Z" fill="#F3F2F2"/>
<path d="M74 8.17676H75H74ZM74 14.8223L75 14.8223V14.8223H74ZM66 22.8223V23.8223V22.8223ZM51.6904 22.8223V21.8223H51.3667L51.1045 22.0119L51.6904 22.8223ZM43.751 28.5635L42.7562 28.6658L42.9335 30.3887L44.3369 29.3738L43.751 28.5635ZM43.1602 22.8223L44.1549 22.7199L44.0625 21.8223H43.1602V22.8223ZM35 14.8223H34V14.8223L35 14.8223ZM35 8.17676L34 8.17676V8.17676H35ZM43 0.176758V-0.823242V0.176758ZM66 0.176758V1.17676C69.866 1.17676 73 4.31076 73 8.17676H74H75C75 3.2062 70.9706 -0.823242 66 -0.823242V0.176758ZM74 8.17676H73V14.8223H74H75V8.17676H74ZM74 14.8223L73 14.8222C72.9998 18.6881 69.8658 21.8223 66 21.8223V22.8223V23.8223C70.9705 23.8223 74.9998 19.7926 75 14.8223L74 14.8223ZM66 22.8223V21.8223H51.6904V22.8223V23.8223H66V22.8223ZM51.6904 22.8223L51.1045 22.0119L43.165 27.7531L43.751 28.5635L44.3369 29.3738L52.2764 23.6326L51.6904 22.8223ZM43.751 28.5635L44.7457 28.4611L44.1549 22.7199L43.1602 22.8223L42.1654 22.9246L42.7562 28.6658L43.751 28.5635ZM43.1602 22.8223V21.8223H43V22.8223V23.8223H43.1602V22.8223ZM43 22.8223V21.8223C39.1342 21.8223 36.0002 18.6881 36 14.8222L35 14.8223L34 14.8223C34.0002 19.7926 38.0295 23.8223 43 23.8223V22.8223ZM35 14.8223H36V8.17676H35H34V14.8223H35ZM35 8.17676L36 8.17676C36 4.31077 39.134 1.17676 43 1.17676V0.176758V-0.823242C38.0294 -0.823242 34 3.2062 34 8.17676L35 8.17676ZM43 0.176758V1.17676H66V0.176758V-0.823242H43V0.176758Z" fill="black" mask="url(#path-10-inside-2_157_3003)"/>
<path d="M42.4001 8.28125H40.9236V8.83789H43.0154V9.36523H38.1872V8.83789H40.2673V8.28125H38.7966V6.44141H42.4001V8.28125ZM39.4294 7.76562H41.7556V6.95117H39.4294V7.76562ZM42.4236 11.5215H41.7732V10.3262H38.7204V9.81055H42.4236V11.5215ZM45.5581 7.13281C45.5581 7.35156 45.6059 7.56445 45.7016 7.77148C45.7973 7.97656 45.9389 8.16113 46.1264 8.3252C46.3139 8.4873 46.5405 8.61328 46.8061 8.70312L46.478 9.20703C46.1889 9.11328 45.9389 8.97168 45.728 8.78223C45.519 8.59277 45.355 8.37109 45.2358 8.11719C45.1167 8.40039 44.9468 8.64746 44.7261 8.8584C44.5054 9.06738 44.2417 9.22266 43.935 9.32422L43.6011 8.80859C43.8745 8.71875 44.1079 8.58789 44.3013 8.41602C44.4966 8.24219 44.644 8.04492 44.7436 7.82422C44.8452 7.60156 44.896 7.37305 44.896 7.13867V7.06836H43.7944V6.54688H46.6538V7.06836H45.5581V7.13281ZM48.0483 11.5215H47.3979V10.1562H44.4389V9.63477H48.0483V11.5215ZM48.0483 9.38281H47.3979V8.07031H46.4956V7.53711H47.3979V6.22461H48.0483V9.38281ZM51.0364 7.73047C51.0364 8.02148 51.0911 8.30957 51.2004 8.59473C51.3118 8.87793 51.47 9.13281 51.675 9.35938C51.8821 9.58398 52.1243 9.75391 52.4016 9.86914L52.0442 10.3848C51.7375 10.2539 51.4709 10.0576 51.2444 9.7959C51.0178 9.53418 50.842 9.23047 50.717 8.88477C50.592 9.25586 50.4153 9.58496 50.1868 9.87207C49.9602 10.1572 49.6946 10.3711 49.3899 10.5137L49.0149 10.0039C49.2864 9.87891 49.5246 9.69531 49.7297 9.45312C49.9368 9.21094 50.0959 8.93945 50.2073 8.63867C50.3186 8.33594 50.3743 8.0332 50.3743 7.73047V7.28516H49.2082V6.74609H52.1965V7.28516H51.0364V7.73047ZM53.4446 11.5215H52.7883V6.22461H53.4446V11.5215ZM59.0342 11.5215H58.4072V6.22461H59.0342V11.5215ZM57.9443 11.2637H57.3232V8.74414H56.8193C56.7998 9.08594 56.7393 9.38281 56.6377 9.63477C56.5381 9.88477 56.4043 10.0771 56.2363 10.2119C56.0684 10.3447 55.876 10.4102 55.6592 10.4082C55.4307 10.4102 55.2295 10.335 55.0557 10.1826C54.8838 10.0283 54.751 9.80859 54.6572 9.52344C54.5635 9.23633 54.5166 8.90039 54.5166 8.51562C54.5166 8.13086 54.5635 7.79688 54.6572 7.51367C54.751 7.22852 54.8838 7.00977 55.0557 6.85742C55.2295 6.70508 55.4307 6.62891 55.6592 6.62891C55.8721 6.62891 56.0605 6.69238 56.2246 6.81934C56.3906 6.94629 56.5234 7.12891 56.623 7.36719C56.7246 7.60547 56.7881 7.88867 56.8135 8.2168H57.3232V6.31836H57.9443V11.2637ZM55.6592 7.24414C55.5479 7.24219 55.4512 7.29004 55.3691 7.3877C55.2871 7.48535 55.2246 7.62988 55.1816 7.82129C55.1387 8.0127 55.1182 8.24414 55.1201 8.51562C55.1182 8.78711 55.1387 9.01855 55.1816 9.20996C55.2246 9.40137 55.2871 9.5459 55.3691 9.64355C55.4512 9.74121 55.5479 9.78906 55.6592 9.78711C55.8369 9.79102 55.9746 9.68262 56.0723 9.46191C56.1719 9.24121 56.2217 8.92578 56.2217 8.51562C56.2217 8.10547 56.1719 7.79004 56.0723 7.56934C55.9746 7.34863 55.8369 7.24023 55.6592 7.24414ZM66.1118 11.5215H65.4907V8.82031H64.8931V11.252H64.2954V6.32422H64.8931V8.29883H65.4907V6.22461H66.1118V11.5215ZM63.6978 7.37891H62.3736V9.73438C62.6821 9.73047 62.9605 9.71875 63.2085 9.69922C63.4566 9.67969 63.7075 9.64648 63.9614 9.59961L64.0083 10.1328C63.7154 10.1914 63.4263 10.2305 63.1411 10.25C62.856 10.2695 62.5005 10.2812 62.0747 10.2852H61.7173V6.85156H63.6978V7.37891ZM69.5628 7.58984H66.9671V7.06836H67.9514V6.37695H68.596V7.06836H69.5628V7.58984ZM68.2737 7.87109C68.4964 7.87109 68.6946 7.92383 68.8684 8.0293C69.0442 8.13281 69.1809 8.27832 69.2786 8.46582C69.3782 8.65332 69.428 8.86523 69.428 9.10156C69.428 9.3418 69.3782 9.55664 69.2786 9.74609C69.1809 9.93555 69.0442 10.084 68.8684 10.1914C68.6946 10.2969 68.4964 10.3496 68.2737 10.3496C68.053 10.3496 67.8548 10.2969 67.679 10.1914C67.5032 10.084 67.3655 9.93555 67.2659 9.74609C67.1663 9.55664 67.1175 9.3418 67.1194 9.10156C67.1175 8.86523 67.1663 8.65332 67.2659 8.46582C67.3655 8.27832 67.5032 8.13281 67.679 8.0293C67.8548 7.92383 68.053 7.87109 68.2737 7.87109ZM68.2737 8.41016C68.1585 8.41016 68.0569 8.43945 67.969 8.49805C67.8811 8.55469 67.8128 8.63574 67.7639 8.74121C67.7151 8.84473 67.6917 8.96484 67.6936 9.10156C67.6917 9.24219 67.7151 9.36523 67.7639 9.4707C67.8128 9.57617 67.8811 9.65723 67.969 9.71387C68.0569 9.76855 68.1585 9.79492 68.2737 9.79297C68.387 9.79492 68.4876 9.76855 68.5755 9.71387C68.6634 9.65723 68.7317 9.57617 68.7805 9.4707C68.8294 9.36523 68.8538 9.24219 68.8538 9.10156C68.8538 8.96484 68.8294 8.84473 68.7805 8.74121C68.7317 8.63574 68.6634 8.55469 68.5755 8.49805C68.4876 8.43945 68.387 8.41016 68.2737 8.41016ZM71.5315 11.5215H70.9104V8.93164H70.3948V11.2812H69.7854V6.33594H70.3948V8.4043H70.9104V6.22461H71.5315V11.5215ZM46.56 15.8906H44.4624V16.2891H45.9565V17.5898H42.9448V17.9766H46.103V18.4746H42.3061V17.1211H45.3179V16.7812H42.3003V16.2891H43.812V15.8906H41.7319V15.375H46.56V15.8906ZM45.9389 15.041H42.3413V13.3887H45.9389V15.041ZM42.98 14.5312H45.2886V13.8984H42.98V14.5312ZM48.6047 13.6113C48.843 13.6113 49.0579 13.6748 49.2493 13.8018C49.4407 13.9287 49.5969 14.1104 49.718 14.3467C49.8391 14.5811 49.9143 14.8574 49.9436 15.1758H50.9543V13.2246H51.5989V18.5273H50.9543V15.7031H49.9524C49.9289 16.0391 49.8577 16.332 49.7385 16.582C49.6194 16.8301 49.4621 17.0215 49.2668 17.1562C49.0715 17.2891 48.8508 17.3555 48.6047 17.3555C48.3391 17.3555 48.1038 17.2793 47.8987 17.127C47.6936 16.9746 47.5334 16.7568 47.4182 16.4736C47.303 16.1904 47.2454 15.8594 47.2454 15.4805C47.2454 15.1055 47.303 14.7773 47.4182 14.4961C47.5334 14.2129 47.6936 13.9951 47.8987 13.8428C48.1057 13.6885 48.3411 13.6113 48.6047 13.6113ZM48.6047 14.1973C48.4582 14.1973 48.3293 14.249 48.218 14.3525C48.1067 14.4541 48.0207 14.6016 47.9602 14.7949C47.8996 14.9863 47.8704 15.2148 47.8723 15.4805C47.8704 15.748 47.8996 15.9785 47.9602 16.1719C48.0207 16.3652 48.1067 16.5137 48.218 16.6172C48.3293 16.7188 48.4582 16.7695 48.6047 16.7695C48.7512 16.7695 48.8791 16.7188 48.9885 16.6172C49.0998 16.5137 49.1858 16.3652 49.2463 16.1719C49.3088 15.9785 49.3411 15.748 49.343 15.4805C49.3411 15.2148 49.3088 14.9854 49.2463 14.792C49.1858 14.5986 49.0998 14.4512 48.9885 14.3496C48.8791 14.248 48.7512 14.1973 48.6047 14.1973ZM57.4229 17.8828H52.583V17.3496H54.6689V16.3184H53.1162V13.5762H53.7666V14.4434H56.2217V13.5762H56.8721V16.3184H55.3135V17.3496H57.4229V17.8828ZM56.2217 15.791V14.9648H53.7666V15.791H56.2217ZM59.6609 14.6133C59.6609 14.9102 59.6961 15.1982 59.7664 15.4775C59.8386 15.7568 59.9509 16.0127 60.1033 16.2451C60.2556 16.4775 60.4461 16.666 60.6746 16.8105L60.3171 17.3086C60.0867 17.1699 59.8914 16.9844 59.7312 16.752C59.5711 16.5176 59.4451 16.249 59.3533 15.9463C59.2537 16.2764 59.1179 16.5693 58.9461 16.8252C58.7742 17.0811 58.5671 17.2832 58.325 17.4316L57.9207 16.9453C58.1687 16.7949 58.3757 16.5977 58.5418 16.3535C58.7078 16.1094 58.8308 15.8408 58.9109 15.5479C58.9929 15.2549 59.0339 14.9531 59.0339 14.6426V13.6934H59.6609V14.6133ZM62.5789 18.5215H61.9519V13.2246H62.5789V18.5215ZM61.4773 18.2637H60.8621V15.5859H60.1062V15.0469H60.8621V13.3184H61.4773V18.2637ZM68.2739 17.877H63.4341V17.3438H64.5532V16.0049C64.3384 15.8799 64.1714 15.7246 64.0523 15.5391C63.9351 15.3535 63.8775 15.1445 63.8794 14.9121C63.8775 14.6367 63.9605 14.3926 64.1284 14.1797C64.2964 13.9668 64.5298 13.8027 64.8286 13.6875C65.1275 13.5703 65.4654 13.5117 65.8423 13.5117C66.2212 13.5117 66.5601 13.5703 66.8589 13.6875C67.1597 13.8027 67.3941 13.9668 67.562 14.1797C67.732 14.3906 67.8169 14.6348 67.8169 14.9121C67.8169 15.1387 67.7593 15.3447 67.6441 15.5303C67.5308 15.7139 67.3696 15.8672 67.1607 15.9902V17.3438H68.2739V17.877ZM65.8423 14.0273C65.5786 14.0273 65.3462 14.0635 65.145 14.1357C64.9458 14.2061 64.7905 14.3076 64.6792 14.4404C64.5698 14.5732 64.5161 14.7305 64.5181 14.9121C64.5161 15.0918 64.5698 15.248 64.6792 15.3809C64.7905 15.5137 64.9468 15.6162 65.148 15.6885C65.3491 15.7607 65.5806 15.7969 65.8423 15.7969C66.104 15.7969 66.3355 15.7607 66.5366 15.6885C66.7398 15.6162 66.897 15.5137 67.0083 15.3809C67.1216 15.248 67.1782 15.0918 67.1782 14.9121C67.1782 14.7324 67.1216 14.5762 67.0083 14.4434C66.897 14.3086 66.7407 14.2061 66.5396 14.1357C66.3384 14.0635 66.106 14.0273 65.8423 14.0273ZM66.4986 17.3438V16.2393C66.2915 16.2842 66.0728 16.3066 65.8423 16.3066C65.6216 16.3066 65.4068 16.2852 65.1978 16.2422V17.3438H66.4986Z" fill="black"/>
</svg>
